<svg width="42" height="42" viewBox="0 0 42 42" fill="none" xmlns="http://www.w3.org/2000/svg">
<g clip-path="url(#clip0_37421_11302)">
<rect x="0.741211" y="0.741211" width="40" height="40" rx="2.96296" fill="white"/>
<path d="M15.4211 15.1829H7.63618C6.69222 15.1829 5.92627 15.9674 5.92627 16.9363V24.6439C5.92627 25.6039 6.67707 26.3834 7.61056 26.3972L15.4155 26.3975C16.3595 26.3975 17.1272 25.6128 17.1272 24.6439L17.131 16.9363C17.131 15.9674 16.3648 15.1829 15.4211 15.1829ZM8.56142 25.499L8.13656 25.5041C7.62214 25.5041 7.20686 25.0806 7.20686 24.5601L7.20374 24.485V17.3674L7.20686 16.9837C7.22758 16.4802 7.60966 16.0734 8.11094 16.0734H8.9738C9.75735 16.0734 10.391 16.754 10.391 17.5556C10.391 17.9537 10.235 18.3131 9.98282 18.5758L7.78099 20.809L9.84558 22.9121C10.1107 23.1871 10.2711 23.5478 10.2711 23.9419C10.2711 24.8016 9.50716 25.499 8.56142 25.499ZM14.9087 25.4925L11.0591 25.4914C11.0591 25.4914 11.5042 24.5285 11.5042 23.9334C11.5042 23.2078 11.2616 22.5584 10.8818 22.1297L9.56575 20.7872L10.9078 19.4001C11.3095 19.0227 11.5746 18.355 11.5746 17.5955C11.5746 16.9938 11.4084 16.4606 11.1393 16.0734H12.0726C12.8555 16.0734 13.4897 16.754 13.4897 17.5556C13.4897 17.9537 13.3345 18.3131 13.0829 18.5758L10.9219 20.7863L15.4088 25.3622C15.2658 25.4517 15.0871 25.4925 14.9087 25.4925ZM15.8477 24.0633L12.6318 20.7856L14.1632 19.2297C14.4754 18.8387 14.6741 18.2516 14.6741 17.5955C14.6741 16.9902 14.5048 16.443 14.2345 16.056L14.9192 16.0774C15.4327 16.0774 15.8504 16.4996 15.8504 17.0216L15.8477 24.0633Z" fill="#00529C"/>
<path d="M24.0312 20.2639C24.0938 20.2013 24.1678 20.1207 24.2531 20.022C24.3382 19.9233 24.4189 19.8068 24.4951 19.6722C24.5713 19.5377 24.6363 19.3877 24.69 19.2217C24.7439 19.056 24.7709 18.8789 24.7709 18.6906C24.7709 18.3232 24.708 17.9804 24.5826 17.662C24.457 17.3438 24.2642 17.0658 24.0043 16.8281C23.7443 16.5908 23.4194 16.4046 23.0293 16.27C22.6394 16.1357 22.1843 16.0684 21.6645 16.0684H21.6503H20.1558H19.7668H18.2354V17.7825V23.7167V25.4814H22.0007C22.5474 25.4814 23.0246 25.4075 23.4328 25.2595C23.8405 25.1116 24.1791 24.9078 24.448 24.6478C24.717 24.3878 24.9164 24.0852 25.0465 23.7401C25.1763 23.395 25.2414 23.0252 25.2414 22.6306C25.2414 22.1017 25.1204 21.6312 24.8785 21.2186C24.6363 20.8064 24.3538 20.4881 24.0312 20.2639ZM22.3663 17.7932C22.4931 17.8416 22.5989 17.9044 22.6816 17.9835C22.8957 18.1889 23.0028 18.4344 23.0028 18.72C23.0028 18.9791 22.958 19.1932 22.8689 19.3628C22.7796 19.5325 22.6902 19.662 22.6011 19.7511H19.9836V17.682H21.6106C21.9156 17.682 22.1667 17.7197 22.3663 17.7932ZM22.0947 21.3801C22.5686 21.3801 22.9197 21.5029 23.1483 21.7479C23.3633 21.9892 23.4716 22.2739 23.4716 22.6035C23.4716 22.943 23.3488 23.2328 23.1033 23.4739C22.8576 23.7149 22.4539 23.8357 21.8913 23.8357H21.6812H19.9836V21.3801H22.0947Z" fill="#00529C"/>
<path d="M31.6261 21.4271C31.9083 21.2344 32.1438 21.0103 32.3321 20.7548C32.5203 20.4992 32.6591 20.2169 32.7489 19.9077C32.8385 19.5983 32.8835 19.2823 32.8835 18.9595C32.8835 18.5382 32.8137 18.1506 32.675 17.7963C32.5357 17.4423 32.3274 17.1375 32.0496 16.882C31.7715 16.6265 31.4242 16.4271 31.0074 16.2836C30.5905 16.1403 30.1086 16.0684 29.5619 16.0684H29.5127H25.8908H25.8569V25.4814H27.639V21.9852H28.6327L31.0903 25.4814H33.1791L30.6378 21.8642C31.0141 21.7658 31.3436 21.6201 31.6261 21.4271ZM29.5753 17.682C29.6873 17.682 29.7932 17.6894 29.8939 17.7021C30.2116 17.75 30.4711 17.8634 30.6712 18.0436C30.9434 18.2894 31.0796 18.5906 31.0796 18.9475C31.0796 19.1264 31.0504 19.3004 30.9924 19.4699C30.9343 19.6397 30.843 19.7892 30.718 19.9184C30.5928 20.0481 30.4321 20.1528 30.2359 20.2332C30.0394 20.3136 29.8028 20.3537 29.526 20.3537H27.639V17.682H29.5753Z" fill="#00529C"/>
<path d="M33.8076 16.0684V16.0711C33.7896 16.0706 33.772 16.0684 33.7539 16.0684H33.7388V16.069V19.5194V21.9917V25.4814H35.5558V16.0684H33.8076Z" fill="#00529C"/>
</g>
<rect x="0.370352" y="0.370841" width="40.7407" height="40.7407" rx="8.37037" stroke="#D5D7DA" stroke-width="0.740741"/>
<defs>
<clipPath id="clip0_37421_11302">
<rect x="0.740723" y="0.741211" width="40" height="40" rx="8" fill="white"/>
</clipPath>
</defs>
</svg>
