<svg width="42" height="42" viewBox="0 0 42 42" fill="none" xmlns="http://www.w3.org/2000/svg">
<rect x="0.370352" y="0.370841" width="40.7407" height="40.7407" rx="8.37037" stroke="#D5D7DA" stroke-width="0.740741"/>
<path fill-rule="evenodd" clip-rule="evenodd" d="M27.7382 16.6298C27.1678 16.971 25.8225 17.768 25.3203 18.0648C25.0142 18.2258 24.3053 18.2961 23.9043 17.7377C23.8972 17.7276 23.3711 17.0486 23.3496 17.0231C23.3345 17.005 22.9944 16.4839 22.2365 16.4676C22.1246 16.4649 21.5679 16.4618 21.0246 16.7807C20.3026 17.2068 18.6234 18.1984 18.6234 18.1984C18.623 18.1984 18.623 18.1993 18.6221 18.1993C17.9319 18.6072 17.394 18.9248 17.394 18.9248L18.0295 19.7309C18.3267 20.1122 18.997 20.4071 19.5784 20.0624C19.5784 20.0624 21.7263 18.7776 21.7342 18.7739C22.6631 18.2477 23.3799 18.2477 23.8556 18.4435C24.2827 18.6299 24.6542 19.0943 24.6542 19.0943C24.6542 19.0943 25.1397 19.7158 25.2253 19.8245C25.5016 20.1757 25.9588 20.0377 25.9588 20.0377C25.9588 20.0377 26.1282 20.0179 26.3837 19.8613C26.3837 19.8613 28.4642 18.6152 28.4655 18.6148C29.1262 18.2144 29.7321 18.1397 30.0417 18.1691C31.0117 18.2602 31.313 18.9601 31.7335 19.4483C31.9812 19.7355 32.2047 19.8986 32.5464 19.8904C32.771 19.8855 33.0247 19.7448 33.0621 19.7194L35.5535 18.2343C35.5535 18.2343 35.2978 17.8366 34.7743 17.2178C34.3057 16.6658 33.8081 16.9156 33.4112 17.1186C33.2445 17.2037 32.6405 17.6188 32.0421 17.9083C31.6157 18.1145 31.0032 18.0525 30.6676 17.6241C30.6475 17.598 30.1044 16.9189 30.0474 16.8354C29.8282 16.5518 29.4005 16.2979 28.8525 16.2979C28.5192 16.2979 28.1411 16.3917 27.7382 16.6298Z" fill="url(#paint0_linear_37421_11312)"/>
<path fill-rule="evenodd" clip-rule="evenodd" d="M5.95408 22.4369C5.95408 21.9935 5.94628 21.6214 5.92285 21.2896H6.73552L6.77362 21.8596H6.79642C6.98061 21.5584 7.31745 21.2021 7.94577 21.2021C8.4362 21.2021 8.81926 21.4877 8.97987 21.9149H8.99565C9.12612 21.7013 9.27885 21.5431 9.45492 21.4319C9.66199 21.2818 9.89959 21.2021 10.2061 21.2021C10.8265 21.2021 11.4543 21.6373 11.4543 22.8721V25.1432H10.5351V23.0148C10.5351 22.3738 10.3209 21.9935 9.86914 21.9935C9.54682 21.9935 9.30906 22.2313 9.21013 22.5085C9.18687 22.6031 9.16391 22.7219 9.16391 22.8319V25.1432H8.24435V22.9115C8.24435 22.3738 8.03783 21.9935 7.60104 21.9935C7.24859 21.9935 7.01138 22.2788 6.92689 22.5473C6.88832 22.6429 6.87286 22.7534 6.87286 22.864V25.1432H5.95408V22.4369Z" fill="#003A70"/>
<path fill-rule="evenodd" clip-rule="evenodd" d="M15.0355 24.2164C15.0355 24.5644 15.0508 24.9041 15.0891 25.1422H14.2384L14.1774 24.715H14.1541C13.9244 25.016 13.5337 25.2293 13.0511 25.2293C12.3001 25.2293 11.8789 24.6679 11.8789 24.0819C11.8789 23.1082 12.7137 22.6181 14.0928 22.6259V22.5623C14.0928 22.309 13.9931 21.8899 13.3343 21.8899C12.9664 21.8899 12.5832 22.0087 12.3305 22.1746L12.1464 21.542C12.4227 21.3676 12.9058 21.2012 13.4953 21.2012C14.6909 21.2012 15.0355 21.9851 15.0355 22.8236V24.2164ZM14.1158 23.2582C13.4494 23.2423 12.8136 23.3926 12.8136 23.9783C12.8136 24.3577 13.0511 24.5322 13.35 24.5322C13.7249 24.5322 14.0012 24.2789 14.0852 24.002C14.108 23.9308 14.1158 23.8513 14.1158 23.7883V23.2582Z" fill="#003A70"/>
<path fill-rule="evenodd" clip-rule="evenodd" d="M15.688 22.4369C15.688 21.9935 15.6796 21.6214 15.6572 21.2896H16.4839L16.5302 21.8672H16.5528C16.7139 21.5669 17.1199 21.2021 17.7403 21.2021C18.3918 21.2021 19.0659 21.6373 19.0659 22.8563V25.1432H18.1237V22.9674C18.1237 22.413 17.9245 21.9935 17.4112 21.9935C17.0357 21.9935 16.7753 22.2705 16.6755 22.5635C16.6453 22.6507 16.6374 22.7697 16.6374 22.8797V25.1432H15.688V22.4369Z" fill="#003A70"/>
<path fill-rule="evenodd" clip-rule="evenodd" d="M23.1502 19.7402V24.0579C23.1502 24.4535 23.1652 24.8816 23.1806 25.1424H22.3378L22.3001 24.5332H22.2845C22.0622 24.9607 21.6095 25.2295 21.0661 25.2295C20.1778 25.2295 19.4727 24.4462 19.4727 23.2592C19.4649 21.9692 20.2463 21.2014 21.1426 21.2014C21.6558 21.2014 22.0239 21.4233 22.1921 21.7084H22.2077V19.7402H23.1502ZM22.2083 22.8937C22.2083 22.8154 22.2004 22.72 22.1856 22.6411C22.1012 22.2612 21.8022 21.9524 21.3732 21.9524C20.768 21.9524 20.4308 22.5067 20.4308 23.2268C20.4308 23.9309 20.768 24.4453 21.3655 24.4453C21.7484 24.4453 22.0858 24.1764 22.1776 23.7571C22.2004 23.6696 22.2083 23.5748 22.2083 23.4716V22.8937Z" fill="#003A70"/>
<path fill-rule="evenodd" clip-rule="evenodd" d="M23.8164 25.1434H24.7674V21.29H23.8164V25.1434Z" fill="#003A70"/>
<path fill-rule="evenodd" clip-rule="evenodd" d="M25.4342 22.5308C25.4342 22.0088 25.4262 21.6363 25.4033 21.2885H26.2232L26.2532 22.0242H26.285C26.4686 21.4781 26.9054 21.2885 27.3036 21.2885C27.3953 21.2885 27.4489 21.2722 27.5257 21.2885V22.1434C27.4489 22.1275 27.3648 22.1117 27.2499 22.1117C26.7979 22.1117 26.4912 22.4122 26.4071 22.8471C26.3921 22.9342 26.3767 23.0375 26.3767 23.1488V25.1423H25.4342V22.5308Z" fill="#003A70"/>
<path fill-rule="evenodd" clip-rule="evenodd" d="M27.9624 25.1434H28.9119V21.29H27.9624V25.1434Z" fill="#003A70"/>
<defs>
<linearGradient id="paint0_linear_37421_11312" x1="17.394" y1="20.2151" x2="35.5535" y2="20.2151" gradientUnits="userSpaceOnUse">
<stop stop-color="#FFCA06"/>
<stop offset="0.330844" stop-color="#FBAA18"/>
<stop offset="0.694742" stop-color="#FFC907"/>
<stop offset="1" stop-color="#FAA619"/>
</linearGradient>
</defs>
</svg>
