<svg width="42" height="42" viewBox="0 0 42 42" fill="none" xmlns="http://www.w3.org/2000/svg">
<g clip-path="url(#clip0_37421_11307)">
<rect x="0.740723" y="0.741211" width="40" height="40" rx="2.96296" fill="white"/>
<path d="M10.2929 22.9757C10.2929 22.6056 10.2969 21.6164 10.2878 21.4945C10.2958 20.0224 9.22548 18.984 8.54931 19.065C8.08143 19.1056 7.68931 19.2964 7.47877 19.8452C7.28363 20.3567 7.45809 21.037 8.10688 21.1967C8.80063 21.3681 9.20573 21.5108 9.4989 21.712C9.85812 21.9584 10.1514 22.4291 10.1592 22.9763" fill="#0060AF"/>
<path d="M10.5695 25.2137C9.34627 25.2137 8.08912 24.9125 6.83364 24.3166L6.80284 24.3014L6.7881 24.27C6.2247 23.0808 5.92676 21.78 5.92676 20.5074C5.92676 19.2367 6.21248 17.9916 6.7763 16.8039L6.79179 16.7723L6.82318 16.7566C7.98456 16.2064 9.23392 15.9277 10.5377 15.9277C11.7522 15.9277 13.0493 16.238 14.2881 16.8265L14.32 16.8406L14.3346 16.8728C14.9088 18.084 15.2116 19.3844 15.2116 20.636C15.2116 21.8826 14.9209 23.1288 14.346 24.3393L14.3308 24.3711L14.2989 24.3858C13.1552 24.9272 11.8655 25.2137 10.5695 25.2137ZM6.94984 24.1535C8.16949 24.7272 9.38587 25.0169 10.5695 25.0169C11.8246 25.0169 13.0728 24.7426 14.1838 24.2226C14.7358 23.0496 15.0155 21.8425 15.0155 20.636C15.0155 19.4246 14.7235 18.1645 14.1712 16.989C12.969 16.4238 11.7134 16.1241 10.5377 16.1241C9.27545 16.1241 8.0656 16.3919 6.93929 16.92C6.39866 18.0712 6.12349 19.2774 6.12349 20.5074C6.12349 21.7397 6.40946 23.0002 6.94984 24.1535Z" fill="#0060AF"/>
<path d="M10.0031 22.9773C10.0053 22.5029 9.74055 22.0834 9.39447 21.858C9.08749 21.6587 8.67536 21.5278 8.01049 21.3592C7.80497 21.3066 7.58999 21.1899 7.52344 21.041C7.34738 21.2184 7.31541 21.6172 7.34638 21.8503C7.38238 22.12 7.69757 22.5645 8.17215 22.582C8.46197 22.5936 8.82839 22.5196 9.00411 22.4823C9.30724 22.4168 9.78684 22.6067 9.86319 22.9768" fill="#0060AF"/>
<path d="M10.5373 16.7715C9.73262 16.7715 9.03753 17.3022 9.04005 18.2204C9.04256 18.9926 9.66356 19.406 9.88515 19.7013C10.22 20.1462 10.4013 20.6729 10.4201 21.4787C10.4347 22.12 10.434 22.7533 10.4373 22.9778H10.6149C10.6118 22.743 10.6038 22.0707 10.613 21.4589C10.625 20.6528 10.8128 20.1462 11.1478 19.7013C11.3713 19.406 11.9918 18.9926 11.9932 18.2204C11.9962 17.3022 11.3015 16.7715 10.4975 16.7715" fill="#0060AF"/>
<path d="M10.7417 22.9757C10.7417 22.6056 10.7375 21.6164 10.7465 21.4945C10.7386 20.0224 11.8082 18.984 12.485 19.065C12.9529 19.1056 13.3446 19.2964 13.5557 19.8452C13.7507 20.3567 13.5752 21.037 12.9272 21.1967C12.2331 21.3681 11.8285 21.5108 11.5346 21.712C11.1758 21.9584 10.903 22.4291 10.8946 22.9763" fill="#0060AF"/>
<path d="M11.0313 22.9773C11.0288 22.5029 11.2935 22.0834 11.6385 21.858C11.9468 21.6587 12.3594 21.5278 13.0237 21.3592C13.2296 21.3066 13.4444 21.1899 13.5097 21.041C13.6866 21.2184 13.7185 21.6172 13.6875 21.8503C13.6508 22.12 13.3364 22.5645 12.8627 22.582C12.573 22.5936 12.2046 22.5196 12.0297 22.4823C11.7277 22.4168 11.2468 22.6067 11.1701 22.9768" fill="#0060AF"/>
<path d="M11.2797 24.5085L11.1768 23.7571L11.4253 23.7194C11.4858 23.7112 11.5595 23.7217 11.589 23.7596C11.6215 23.7992 11.6315 23.832 11.6378 23.8839C11.6472 23.9481 11.6286 24.0223 11.5562 24.0593V24.0616C11.637 24.0616 11.6858 24.1196 11.7 24.2175C11.7021 24.2382 11.7082 24.2882 11.7021 24.3299C11.6857 24.4291 11.6265 24.461 11.5266 24.475L11.2797 24.5085ZM11.4397 24.3739C11.4692 24.3697 11.4991 24.3682 11.5224 24.3533C11.5582 24.3299 11.5549 24.2799 11.55 24.2428C11.5375 24.1613 11.5162 24.1303 11.4297 24.1431L11.3754 24.1515L11.4098 24.3781L11.4397 24.3739ZM11.3876 24.0268C11.4205 24.0214 11.4652 24.0175 11.4837 23.9862C11.4935 23.9654 11.5059 23.9488 11.4977 23.9024C11.4876 23.8474 11.4693 23.8134 11.3995 23.8266L11.3345 23.8371L11.3601 24.0296" fill="#0060AF"/>
<path d="M12.3559 24.0569C12.3578 24.0709 12.3601 24.0864 12.3609 24.1004C12.381 24.2375 12.3559 24.3509 12.2019 24.3821C11.9742 24.426 11.9306 24.2845 11.8905 24.0864L11.8691 23.9793C11.8377 23.7897 11.8242 23.6463 12.0463 23.6021C12.1714 23.5792 12.2541 23.629 12.2885 23.7536C12.2939 23.7722 12.3006 23.7906 12.3031 23.8093L12.1669 23.8374C12.1512 23.7906 12.1303 23.707 12.069 23.714C11.959 23.7272 11.9954 23.8641 12.0067 23.9213L12.0476 24.127C12.0599 24.1892 12.0843 24.2885 12.1795 24.2694C12.2568 24.2539 12.2231 24.1335 12.2163 24.0842" fill="#0060AF"/>
<path d="M12.5755 24.2836L12.5283 23.506L12.7113 23.4502L13.095 24.1264L12.9509 24.1696L12.86 23.9977L12.7 24.0457L12.7207 24.2411L12.5755 24.2836ZM12.6866 23.9202L12.8022 23.8867L12.6487 23.5721" fill="#0060AF"/>
<path d="M8.05547 23.6966C8.11273 23.5133 8.16405 23.3783 8.38254 23.4382C8.49949 23.4709 8.57199 23.5225 8.56856 23.6583C8.56799 23.6885 8.55801 23.7194 8.55148 23.7492L8.41544 23.7117C8.43328 23.6366 8.44458 23.5771 8.35216 23.5487C8.24534 23.5194 8.2193 23.6489 8.20457 23.7048L8.14923 23.9086C8.13165 23.9692 8.11055 24.0692 8.20457 24.095C8.28225 24.1159 8.32939 24.0397 8.35751 23.9283L8.26233 23.9031L8.29523 23.7852L8.519 23.8572L8.41277 24.25L8.3098 24.2221L8.33299 24.139H8.33005C8.28267 24.2069 8.22482 24.214 8.17418 24.2043C7.95041 24.1438 7.97376 23.9975 8.02717 23.8021" fill="#0060AF"/>
<path d="M8.88803 24.0279L8.82064 24.3475L8.66895 24.3147L8.8306 23.5684L9.08919 23.6268C9.24055 23.6594 9.28626 23.7268 9.26483 23.8656C9.25261 23.9452 9.21334 24.031 9.11749 24.024L9.11649 24.0227C9.19752 24.0511 9.20439 24.092 9.19024 24.1626C9.18413 24.1927 9.14202 24.3751 9.17107 24.4045L9.17207 24.4269L9.01511 24.386C9.00858 24.3354 9.03076 24.2445 9.03955 24.1942C9.04843 24.1496 9.06257 24.0868 9.01737 24.0632C8.98196 24.0444 8.96881 24.0453 8.9288 24.0361L8.88803 24.0279ZM8.9139 23.9123L9.01603 23.9398C9.07806 23.9488 9.11255 23.9166 9.12477 23.8417C9.13582 23.773 9.12151 23.7461 9.06584 23.7328L8.95634 23.7106" fill="#0060AF"/>
<path d="M9.86031 23.7352L10.0103 23.7526L9.9457 24.2773C9.91431 24.4436 9.85002 24.5164 9.66702 24.4936C9.48083 24.4701 9.43663 24.3853 9.44793 24.2176L9.51298 23.6934L9.66417 23.7107L9.59929 24.2232C9.59243 24.2789 9.57953 24.3613 9.67857 24.3713C9.76639 24.378 9.78631 24.3198 9.79619 24.2475" fill="#0060AF"/>
<path d="M10.1768 24.5227L10.2219 23.7725L10.5101 23.7849C10.6463 23.7916 10.682 23.9029 10.6777 24.009C10.6738 24.0736 10.6536 24.1457 10.5973 24.1848C10.5512 24.218 10.4919 24.2259 10.4369 24.2232L10.343 24.218L10.3243 24.5324L10.1768 24.5227ZM10.3473 24.1036L10.4236 24.1078C10.4857 24.1101 10.5268 24.0856 10.5321 23.9945C10.5351 23.907 10.5021 23.8922 10.4217 23.8887L10.3612 23.8866" fill="#0060AF"/>
<path d="M30.5052 17.4966L29.3597 19.5758C28.9273 19.2247 28.3993 18.9663 27.7256 18.9663C26.1314 18.9663 25.4839 20.1546 25.4839 20.9917C25.4839 21.613 25.8908 22.5298 27.3092 22.5298C27.9046 22.5298 28.751 22.1155 28.9947 21.9271L27.8617 24.3393C27.3216 24.4471 27.1442 24.5139 26.6871 24.528C24.1482 24.6038 23.1223 23.0442 23.123 21.4505C23.1247 19.3437 24.9978 16.7815 28.103 16.7815C28.2933 16.7815 28.526 16.8473 28.725 16.9203L28.9261 16.6631" fill="#0060AF"/>
<path d="M35.2323 16.7275L35.5567 24.2847H33.1426L33.1411 22.9886H31.495L30.9532 24.2847H28.335L31.0722 18.8882L30.455 18.8842L31.6277 16.7275H35.2323ZM33.1255 19.0394L32.1947 21.2375H33.1535" fill="#0060AF"/>
<path d="M21.599 16.7276C22.7945 16.7343 23.4701 17.3832 23.4701 18.3207C23.4701 19.1849 22.7576 19.9499 21.9754 20.3454C22.7807 20.6414 22.8504 21.3681 22.8504 21.8822C22.8504 23.1242 21.6041 24.2847 19.9841 24.2847H16.4512L17.8293 18.9634L17.2632 18.9602L18.4204 16.7276C18.4204 16.7276 20.6268 16.7209 21.599 16.7276ZM20.4261 19.7916C20.6733 19.7916 21.11 19.7289 21.2192 19.2503C21.3388 18.7308 20.929 18.7168 20.7324 18.7168L20.0301 18.7137L19.7851 19.7916L20.4261 19.7916ZM19.433 21.127L19.1096 22.369H19.9367C20.2621 22.369 20.7055 22.2075 20.8142 21.8033C20.9215 21.398 20.6115 21.127 20.2873 21.127" fill="#0060AF"/>
</g>
<rect x="0.370352" y="0.370841" width="40.7407" height="40.7407" rx="3.33333" stroke="#D5D7DA" stroke-width="0.740741"/>
<defs>
<clipPath id="clip0_37421_11307">
<rect x="0.740723" y="0.741211" width="40" height="40" rx="2.96296" fill="white"/>
</clipPath>
</defs>
</svg>
