<svg width="42" height="42" viewBox="0 0 42 42" fill="none" xmlns="http://www.w3.org/2000/svg">
<g clip-path="url(#clip0_37421_11297)">
<rect x="0.741211" y="0.741211" width="40" height="40" rx="2.96296" fill="white"/>
<path fill-rule="evenodd" clip-rule="evenodd" d="M5.92871 19.3105L8.42834 22.4637L5.92871 24.535V19.3105Z" fill="#C12116"/>
<path fill-rule="evenodd" clip-rule="evenodd" d="M6.93506 24.5353L8.81591 22.9619L10.1159 24.5353H6.93506Z" fill="#C12116"/>
<path fill-rule="evenodd" clip-rule="evenodd" d="M5.92871 17.6235L6.58102 18.4486L9.26308 21.8001L10.1322 21.108C10.1322 21.108 9.41067 20.2586 8.92621 19.3107C7.97905 17.4575 8.64962 16.3037 8.64962 16.3037H5.92871V17.6235Z" fill="#C12116"/>
<path fill-rule="evenodd" clip-rule="evenodd" d="M9.646 22.318L10.5311 21.5869C10.5311 21.5869 11.3764 22.6997 12.3566 22.9623C13.6411 23.3065 14.2098 22.4644 14.2098 22.4644V24.5358H11.3885L12.0247 23.9857C12.0247 23.9857 11.6928 24.207 10.881 23.6447C10.4019 23.3129 9.646 22.318 9.646 22.318Z" fill="#C12116"/>
<path fill-rule="evenodd" clip-rule="evenodd" d="M9.72683 16.2979C9.72683 16.2979 9.44446 16.6825 9.64545 17.6236C9.86028 18.6296 10.7147 19.6943 10.7127 19.6704C10.7127 19.6704 10.7676 18.6133 11.388 17.9929C12.7104 16.6705 14.2093 17.4577 14.2093 17.4577V16.3039L9.72683 16.2979Z" fill="#C12116"/>
<path fill-rule="evenodd" clip-rule="evenodd" d="M14.2096 18.852C14.2096 18.852 13.3733 18.1357 12.6462 18.1357C11.7162 18.1357 11.2085 18.9387 11.2085 19.5212C11.2085 20.3696 11.6157 20.841 12.0245 21.2497C12.6118 21.8371 13.3264 22.4706 14.2096 21.9607C14.2096 20.9957 14.2096 18.852 14.2096 18.852Z" fill="#C12116"/>
<path fill-rule="evenodd" clip-rule="evenodd" d="M23.7334 16.3838H25.7068C25.7068 16.3838 27.455 19.0308 28.3141 20.1244C29.1733 21.218 30.098 22.4637 30.098 22.4637C30.098 22.4637 30.098 18.8514 30.098 16.9766C30.098 16.7396 29.4758 16.3838 29.4758 16.3838H31.7514C31.7514 16.3838 31.0047 16.6906 31.0047 16.9766C31.0047 19.3105 31.0047 24.9591 31.0047 24.9591C31.0047 24.9591 30.2883 24.5617 29.4758 23.6177C28.5629 22.5569 25.3157 18.2744 25.3157 18.2744C25.3157 18.2744 25.3157 22.3173 25.3157 23.8212C25.3157 24.1053 25.9379 24.535 25.9379 24.535H23.7334C23.7334 24.535 24.3379 24.1018 24.3379 23.8212C24.3379 21.7999 24.3379 18.8514 24.3379 16.9766C24.3379 16.7247 23.7334 16.3838 23.7334 16.3838Z" fill="#005E6A"/>
<path fill-rule="evenodd" clip-rule="evenodd" d="M33.0259 16.3838H35.5586C35.5586 16.3838 34.8785 16.7059 34.8785 16.9766C34.8785 18.8514 34.8785 21.96 34.8785 23.8212C34.8785 24.117 35.5586 24.535 35.5586 24.535H33.0259C33.0259 24.535 33.6591 24.1075 33.6591 23.8212C33.6591 21.5862 33.6591 18.8514 33.6591 16.9766C33.6591 16.7164 33.0259 16.3838 33.0259 16.3838Z" fill="#005E6A"/>
<path fill-rule="evenodd" clip-rule="evenodd" d="M16.2822 16.3838C16.2822 16.3838 16.9389 16.7112 16.9389 16.9766C16.9389 18.8514 16.9389 21.5862 16.9389 23.8212C16.9389 24.1122 16.2822 24.535 16.2822 24.535C16.2822 24.535 19.5626 24.535 20.0344 24.535C20.2689 24.535 22.8954 24.1055 22.8954 22.0806C22.8954 20.0556 20.8552 19.866 20.8552 19.866C20.8552 19.866 22.0981 19.5205 22.0981 18.1351C22.0981 16.6418 20.2689 16.3838 20.0344 16.3838C19.5471 16.3838 16.2822 16.3838 16.2822 16.3838ZM18.2756 19.7318V17.1835C18.2756 17.1835 19.3632 17.1835 19.7999 17.1835C20.0344 17.1835 20.8552 17.4573 20.8552 18.4732C20.8552 19.3105 20.0344 19.7318 19.7999 19.7318C19.2682 19.7318 18.2756 19.7318 18.2756 19.7318ZM18.2756 20.4002C18.2756 20.4002 19.7999 20.4002 20.0344 20.4002C20.2689 20.4002 21.6525 20.7596 21.6525 21.96C21.6525 23.1839 20.2689 23.6177 20.0344 23.6177C19.7999 23.6177 18.2756 23.6177 18.2756 23.6177V20.4002Z" fill="#005E6A"/>
</g>
<rect x="0.370352" y="0.370841" width="40.7407" height="40.7407" rx="8.37037" stroke="#D5D7DA" stroke-width="0.740741"/>
<defs>
<clipPath id="clip0_37421_11297">
<rect x="0.740723" y="0.741211" width="40" height="40" rx="8" fill="white"/>
</clipPath>
</defs>
</svg>
